<svg xmlns="http://www.w3.org/2000/svg" width="40" height="40" xmlSpace="preserve"><circle fill="#38FF94" cx="20" cy="20" r="20"/><g fill="#211D1D"><path d="M30.313 26c.44 0 .671-.357.77-.569l4.774-10.226c.116-.25.107-.375-.053-.622-.106-.167-.282-.438-.482-.438-.057 0-.117-.146-.233-.146H14.244l-1.116-3.252c-.171-.519-.657-.747-1.18-.747h-.002l-3.175-.142c-.678.002-1.272.682-1.271 1.415.001.688.527 1.465 1.181 1.537.031.005 2.329-.157 2.329-.157l4.02 11.977-1.064 1.888c-.267.494-.181 1.054.19 1.424l.956 1.155.082.082c.155.168.362.377.634.451-.543.369-.9.989-.9 1.694 0 1.132.92 2.052 2.052 2.052 1.131 0 2.051-.751 2.051-1.883 0-.686-.341-1.493-.858-1.493h8.649c-.518 0-.858.807-.858 1.492 0 1.133.92 1.968 2.052 1.968s2.052-.793 2.052-1.925c0-.686-.341-1.535-.858-1.535h.787c.702 0 1.273-.798 1.273-1.5s-.573-1.5-1.275-1.5H16.716l.458-1h13.139z"/><path d="M11.552 22H7.51c-.557 0-1.01.362-1.01 1s.453 1 1.01 1h4.042c.557 0 1.01-.362 1.01-1s-.453-1-1.01-1zM10.552 19H6.51c-.557 0-1.01.362-1.01 1s.453 1 1.01 1h4.042c.557 0 1.01-.362 1.01-1s-.453-1-1.01-1zM9.552 16H5.51c-.557 0-1.01.362-1.01 1s.453 1 1.01 1h4.042c.557 0 1.01-.362 1.01-1s-.453-1-1.01-1z"/></g></svg>