<svg xmlns="http://www.w3.org/2000/svg" width="20" height="20" xmlSpace="preserve"><path fill="#356640" d="m10.339 4.588.255-.3-.255.3zm3.803 3.227-.254.299.254-.299zm-8.284 0 .254.299-.254-.299zm8.076.4v5.134h.787V8.215h-.787zm-7.868 5.134V8.215h-.787v5.134h.787zm.046-5.235 3.803-3.226-.509-.6-3.802 3.227.508.599zm3.973-3.225 3.803 3.226.509-.599-3.803-3.227-.509.6zm-.741 6.493h1.312v-.787H9.344v.787zm1.443.131v1.836h.786v-1.836h-.786zm-1.574 1.836v-1.836h-.787v1.836h.787zm-.918.13H6.197v.787h2.098v-.787zm3.409.788h2.099v-.787h-2.099v.787zm-3.278-.918a.131.131 0 0 1-.131.131v.787c.507 0 .917-.41.917-.918h-.786zm2.361 0c0 .506.411.918.917.918v-.787a.131.131 0 0 1-.131-.131h-.786zm-.131-1.967c.072 0 .131.059.131.131h.786a.917.917 0 0 0-.917-.918v.787zm-1.312-.787a.918.918 0 0 0-.918.918h.787c0-.072.059-.131.131-.131v-.787zm.571-5.707a.13.13 0 0 1 .17 0l.509-.599a.917.917 0 0 0-1.188 0l.509.599zm-4.636 8.461c0 .506.411.918.918.918v-.787a.13.13 0 0 1-.131-.131h-.787zm8.655 0a.13.13 0 0 1-.131.131v.787c.507 0 .918-.41.918-.918h-.787zm.787-5.134a.92.92 0 0 0-.324-.7l-.509.599a.135.135 0 0 1 .046.101h.787zm-8.655 0c0-.038.017-.075.045-.1l-.508-.6a.915.915 0 0 0-.324.7h.787z"/><circle fill="none" stroke="#356640" strokeWidth=".9" strokeMiterlimit="10" cx="10" cy="10" r="9.5"/></svg>