<svg xmlns="http://www.w3.org/2000/svg" width="40" height="40" xmlSpace="preserve"><path fill="#356640" d="m20.734 10.083.551-.647-.551.647zm8.233 6.985-.55.649.55-.649zm-17.936 0 .55.649-.55-.649zm17.486.868V29.05h1.704V17.936h-1.704zM11.483 29.05V17.936H9.779V29.05h1.704zm.098-11.332 8.235-6.984-1.102-1.298-8.233 6.986 1.1 1.296zm8.603-6.984 8.233 6.984 1.102-1.296-8.233-6.986-1.102 1.298zm-1.605 14.057h2.842v-1.704h-2.842v1.704zm3.125.283v3.976h1.702v-3.976h-1.702zm-3.408 3.976v-3.976h-1.704v3.976h1.704zm-1.987.283h-4.542v1.704h4.542v-1.704zm7.38 1.704h4.544v-1.704h-4.544v1.704zm-7.097-1.987a.283.283 0 0 1-.283.283v1.704a1.986 1.986 0 0 0 1.987-1.987h-1.704zm5.112 0c0 1.095.891 1.987 1.985 1.987v-1.704a.283.283 0 0 1-.283-.283h-1.702zm-.283-4.259c.156 0 .283.127.283.283h1.702a1.986 1.986 0 0 0-1.985-1.987v1.704zm-2.842-1.704a1.99 1.99 0 0 0-1.987 1.987h1.704c0-.156.127-.283.283-.283v-1.704zm1.237-12.355a.282.282 0 0 1 .368 0l1.101-1.296a1.985 1.985 0 0 0-2.571 0l1.102 1.296zM9.779 29.05c0 1.095.89 1.987 1.987 1.987v-1.704a.283.283 0 0 1-.283-.283H9.779zm18.738 0a.282.282 0 0 1-.283.283v1.704a1.987 1.987 0 0 0 1.987-1.987h-1.704zm1.704-11.114c0-.583-.258-1.138-.702-1.514l-1.102 1.296c.063.055.1.135.1.218h1.704zm-18.738 0c0-.083.036-.163.097-.216l-1.099-1.298a1.987 1.987 0 0 0-.702 1.514h1.704z"/><circle fill="none" stroke="#356640" strokeWidth="1.7" strokeMiterlimit="10" cx="20" cy="20" r="18.688"/></svg>