<svg xmlns="http://www.w3.org/2000/svg" width="40" height="40" xmlSpace="preserve"><circle fill="#38FF94" cx="20" cy="20" r="20"/><path fill="#211D1D" d="M31.175 14.941C30.961 9.615 26.388 4.25 20.484 4.25c-5.905 0-10.578 5.063-10.691 10.691-.156 7.756 7.896 18.851 10.691 18.851 3.198 0 10.993-11.345 10.691-18.851zm-10.684 7.266c-4.08 0-7.387-3.307-7.387-7.387a7.387 7.387 0 1 1 14.774 0 7.387 7.387 0 0 1-7.387 7.387z"/><path fill="#211D1D" d="M23.789 32.428c-1.26 1.314-2.434 2.119-3.282 2.119-.749 0-1.876-.801-3.12-2.115-2.365.393-3.99 1.203-3.99 2.141 0 1.322 3.225 2.393 7.203 2.393 3.979 0 7.203-1.07 7.203-2.393 0-.942-1.636-1.755-4.014-2.145z"/></svg>